<svg width="38" height="38" viewBox="0 0 38 38" fill="none" xmlns="http://www.w3.org/2000/svg">
<path d="M19 1C9.05263 1 1 9.05263 1 19C1 28.9474 9.05263 37 19 37C28.9474 37 37 28.9474 37 19C37 9.05263 28.9474 1 19 1ZM19 35.1053C10.0947 35.1053 2.89474 27.9053 2.89474 19C2.89474 10.0947 10.0947 2.89474 19 2.89474C27.9053 2.89474 35.1053 10.0947 35.1053 19C35.1053 27.9053 27.9053 35.1053 19 35.1053ZM29.8474 12.8895C29.4684 12.5105 28.9 12.5105 28.5211 12.8895L16.4421 25.0158L11.3737 19.9474C10.9947 19.5684 10.3789 19.5684 10.0474 19.9474C9.66842 20.3263 9.66842 20.9421 10.0474 21.2737L15.7789 27.0053C15.9684 27.1947 16.2053 27.2895 16.4421 27.2895C16.6789 27.2895 16.9158 27.1947 17.1053 27.0053L29.8474 14.2158C30.2263 13.8368 30.2263 13.2684 29.8474 12.8895Z" fill="#6FCF97" stroke="#6FCF97"/>
</svg>
